<mxfile host="app.diagrams.net" modified="2024-02-27T09:48:01.464Z" agent="Mozilla/5.0 (Macintosh; Intel Mac OS X 10_15_7) AppleWebKit/605.1.15 (KHTML, like Gecko) Version/17.1 Safari/605.1.15" version="23.1.7" etag="nOtip6Bgs4BfLeBt4U7g" type="github">
  <diagram name="Page-1" id="UGSMQdRKtaiJBlzYW9DE">
    <mxGraphModel>
      <root>
        <mxCell id="0" />
        <mxCell id="1" parent="0" />
      </root>
    </mxGraphModel>
  </diagram>
</mxfile>
